PathFileType        4      (X/Y/Z)      C:\Users\pc\Desktop\IMUTRC\Sujet_02\Sujet_02_Tpose.trc         
DataRate	CameraRate	NumFrames	NumMarkers	Units	OrigDataRate	OrigDataStartFrame	OrigNumFrames
60.0	60.0	4	64	mm	60.0	20	155
Frame#	Time	pHipOrigin			pRightASI			pLeftASI			pRightCSI			pLeftCSI			pRightIschialTub			pLeftIschialTub			pSacrum			pL5SpinalProcess			pL3SpinalProcess			pT12SpinalProcess			pIJ			pT4SpinalProcess			pT8SpinalProcess			pPX			pC7SpinalProcess			pTopOfHead			pRightAuricularis			pLeftAuricularis			pBackOfHead			pRightAcromion			pLeftAcromion			pRightArmLatEpicondyle			pRightArmMedEpicondyle			pLeftArmLatEpicondyle			pLeftArmMedEpicondyle			pRightUlnarStyloid			pRightRadialStyloid			pRightOlecranon			pLeftUlnarStyloid			pLeftRadialStyloid			pLeftOlecranon			pRightTopOfHand			pRightPinky			pRightBallHand			pLeftTopOfHand			pLeftPinky			pLeftBallHand			pRightGreaterTrochanter			pRightKneeLatEpicondyle			pRightKneeMedEpicondyle			pRightPatella			pLeftGreaterTrochanter			pLeftKneeLatEpicondyle			pLeftKneeMedEpicondyle			pLeftPatella			pRightTibialTub			pRightLatMalleolus			pRightMedMalleolus			pLeftTibialTub			pLeftLatMalleolus			pLeftMedMalleolus			pRightHeelFoot			pRightFirstMetatarsal			pRightFifthMetatarsal			pRightPivotFoot			pRightHeelCenter			pRightToe			pLeftHeelFoot			pLeftFirstMetatarsal			pLeftFifthMetatarsal			pLeftPivotFoot			pLeftHeelCenter			pLeftToe			
		X1	Y1	Z1	X2	Y2	Z2	X3	Y3	Z3	X4	Y4	Z4	X5	Y5	Z5	X6	Y6	Z6	X7	Y7	Z7	X8	Y8	Z8	X9	Y9	Z9	X10	Y10	Z10	X11	Y11	Z11	X12	Y12	Z12	X13	Y13	Z13	X14	Y14	Z14	X15	Y15	Z15	X16	Y16	Z16	X17	Y17	Z17	X18	Y18	Z18	X19	Y19	Z19	X20	Y20	Z20	X21	Y21	Z21	X22	Y22	Z22	X23	Y23	Z23	X24	Y24	Z24	X25	Y25	Z25	X26	Y26	Z26	X27	Y27	Z27	X28	Y28	Z28	X29	Y29	Z29	X30	Y30	Z30	X31	Y31	Z31	X32	Y32	Z32	X33	Y33	Z33	X34	Y34	Z34	X35	Y35	Z35	X36	Y36	Z36	X37	Y37	Z37	X38	Y38	Z38	X39	Y39	Z39	X40	Y40	Z40	X41	Y41	Z41	X42	Y42	Z42	X43	Y43	Z43	X44	Y44	Z44	X45	Y45	Z45	X46	Y46	Z46	X47	Y47	Z47	X48	Y48	Z48	X49	Y49	Z49	X50	Y50	Z50	X51	Y51	Z51	X52	Y52	Z52	X53	Y53	Z53	X54	Y54	Z54	X55	Y55	Z55	X56	Y56	Z56	X57	Y57	Z57	X58	Y58	Z58	X59	Y59	Z59	X60	Y60	Z60	X61	Y61	Z61	X62	Y62	Z62	X63	Y63	Z63	X64	Y64	Z64	
20	0.317	-4421.86684	1100.6856300000004	-6469.32183	-4337.30506	1191.2381600000006	-6321.85715	-4367.25882	1222.5744100000004	-6607.80039	-4387.99605	1263.5880200000004	-6334.99072	-4412.41988	1289.3943400000005	-6569.32132	-4473.94031	1032.7136300000004	-6411.48803	-4486.15223	1045.6167900000005	-6528.53812	-4492.83422	1121.4228500000004	-6459.64446	-4455.0464	1219.1182000000003	-6453.88412	-4440.76075	1334.0945800000004	-6450.42792	-4436.84372	1440.0848200000005	-6449.73668	-4258.50362	1644.4616600000004	-6463.33108	-4416.56733	1638.4709000000005	-6456.18826	-4431.54421	1545.8446500000005	-6452.04082	-4273.71091	1517.0429500000005	-6457.80115	-4404.35541	1693.0789200000004	-6457.10991	-4346.29119	1912.6630500000006	-6488.90699	-4326.47562	1834.5528500000005	-6415.86588	-4356.89021	1817.2718300000004	-6540.51963	-4390.99142	1825.1059000000005	-6466.09604	-4393.52597	1682.4799000000005	-6253.88514	-4407.81161	1673.7241800000004	-6660.79551	-4398.82548	1557.1349100000004	-5986.14457	-4347.90408	1519.3470900000004	-5999.73898	-4352.05153	1526.7203200000004	-6916.09375	-4293.98731	1509.4393000000005	-6892.82198	-4310.34667	1486.1675300000004	-5717.25194	-4333.61844	1539.1626500000004	-5708.26581	-4364.95469	1514.2779900000005	-6004.57766	-4245.60046	1452.5271500000003	-7173.69612	-4285.23159	1492.8495300000004	-7188.673	-4307.12088	1499.9923500000004	-6890.51784	-4319.79363	1516.1213000000002	-5525.54785	-4289.37904	1487.0891900000004	-5606.1926	-4299.28682	1507.3655800000004	-5679.69453	-4243.29632	1462.2045200000005	-7367.01311	-4215.18587	1449.7621900000004	-7281.29926	-4238.45764	1472.1123100000004	-7211.48395	-4411.26782	1056.6766400000004	-6294.43793	-4446.29068	610.8263800000003	-6325.31335	-4447.44275	610.1351400000003	-6411.94885	-4398.36466	610.1351400000003	-6372.08731	-4450.43812	1081.3308900000004	-6643.28408	-4478.31817	634.3285600000005	-6626.92472	-4458.5026	629.2594600000004	-6542.82376	-4420.48436	631.5636000000004	-6593.28433	-4385.69191	570.5040000000004	-6372.08731	-4454.81598	145.3909600000004	-6333.60824	-4455.50722	144.9301400000004	-6402.04107	-4408.96368	591.2412200000005	-6598.35343	-4493.75588	169.1235600000004	-6638.21498	-4477.85734	165.20653000000038	-6571.85587	-4511.49772	32.02749000000039	-6393.28535	-4326.93645	9.67737000000039	-6396.05032	-4346.98243	0.46083000000038643	-6310.7973	-4312.65081	1.6128900000003887	-6349.27636	-4469.79286	24.654250000000392	-6384.06881	-4230.62358	1.1520700000003876	-6330.38245	-4556.65878	66.3591100000004	-6568.63008	-4385.23108	7.373230000000405	-6610.33494	-4426.2447	7.8340600000004095	-6688.21473	-4384.30943	-0.46082999999959223	-6659.41303	-4520.71426	51.382230000000405	-6587.52399	-4309.88585	0.6912400000004101	-6698.35292	
21	0.333	-4421.86684	1100.4552200000005	-6469.32183	-4337.53547	1191.2381600000006	-6322.08756	-4367.25882	1222.5744100000004	-6607.80039	-4387.99605	1263.5880200000004	-6334.99072	-4412.41988	1289.3943400000005	-6569.32132	-4473.94031	1032.7136300000004	-6411.48803	-4486.15223	1045.6167900000005	-6528.53812	-4492.83422	1121.4228500000004	-6459.64446	-4455.27681	1219.1182000000003	-6453.88412	-4440.76075	1334.0945800000004	-6450.42792	-4436.84372	1440.0848200000005	-6449.73668	-4258.73403	1644.4616600000004	-6463.33108	-4416.79774	1638.4709000000005	-6456.18826	-4431.77462	1545.6142300000004	-6452.04082	-4273.94133	1517.0429500000005	-6458.03157	-4404.58582	1693.0789200000004	-6456.8795	-4346.29119	1912.6630500000006	-6488.90699	-4326.47562	1834.3224400000004	-6415.86588	-4356.89021	1817.5022500000005	-6540.28921	-4391.22184	1825.1059000000005	-6465.86563	-4393.52597	1682.4799000000005	-6253.88514	-4408.04203	1673.7241800000004	-6660.5651	-4398.59507	1556.9045000000006	-5986.14457	-4347.67367	1519.1166700000006	-5999.73898	-4352.28194	1526.7203200000004	-6916.09375	-4294.44814	1509.6697200000006	-6892.82198	-4310.11626	1485.9371200000005	-5717.25194	-4333.38803	1538.9322400000005	-5708.26581	-4364.95469	1514.0475800000004	-6004.57766	-4245.60046	1453.2183900000005	-7173.92653	-4285.69242	1493.3103500000004	-7188.673	-4307.3513	1500.2227600000006	-6890.51784	-4319.3328	1516.1213000000002	-5525.54785	-4289.14862	1486.8587700000005	-5606.1926	-4299.05641	1507.3655800000004	-5679.69453	-4243.52674	1463.5870000000004	-7367.01311	-4215.18587	1450.9142600000005	-7281.52967	-4238.68805	1473.0339600000004	-7211.48395	-4411.26782	1056.6766400000004	-6294.43793	-4446.29068	610.8263800000003	-6325.54376	-4447.44275	610.1351400000003	-6411.94885	-4398.36466	610.1351400000003	-6372.31772	-4450.66854	1081.3308900000004	-6643.51449	-4478.31817	634.0981500000005	-6626.92472	-4458.5026	629.2594600000004	-6542.82376	-4420.71477	631.5636000000004	-6593.28433	-4385.69191	570.2735900000004	-6372.08731	-4454.81598	145.3909600000004	-6333.60824	-4455.73764	144.9301400000004	-6402.04107	-4409.19409	591.2412200000005	-6598.35343	-4493.75588	169.1235600000004	-6638.21498	-4477.85734	165.20653000000038	-6571.85587	-4511.49772	32.02749000000039	-6393.28535	-4326.93645	9.67737000000039	-6396.05032	-4346.98243	0.46083000000038643	-6310.7973	-4312.65081	1.6128900000003887	-6349.27636	-4469.79286	24.654250000000392	-6384.06881	-4230.62358	1.1520700000003876	-6330.38245	-4556.65878	66.1286900000004	-6568.63008	-4385.23108	7.373230000000405	-6610.33494	-4426.2447	7.8340600000004095	-6688.21473	-4384.30943	-0.46082999999959223	-6659.41303	-4520.71426	51.382230000000405	-6587.52399	-4309.88585	0.6912400000004101	-6698.35292	
22	0.35	-4421.86684	1100.4552200000005	-6469.32183	-4337.53547	1191.2381600000006	-6322.08756	-4367.25882	1222.5744100000004	-6607.80039	-4387.99605	1263.5880200000004	-6335.22113	-4412.6503	1289.3943400000005	-6569.32132	-4473.94031	1032.7136300000004	-6411.48803	-4486.38264	1045.6167900000005	-6528.53812	-4492.83422	1121.1924400000005	-6459.64446	-4455.27681	1219.1182000000003	-6453.88412	-4440.76075	1334.0945800000004	-6450.42792	-4437.07414	1440.0848200000005	-6449.73668	-4258.96445	1644.4616600000004	-6463.33108	-4416.79774	1638.4709000000005	-6455.95785	-4431.77462	1545.6142300000004	-6452.04082	-4273.94133	1517.0429500000005	-6458.03157	-4404.81624	1693.0789200000004	-6456.8795	-4346.5216	1912.6630500000006	-6488.67657	-4326.70604	1834.3224400000004	-6415.63547	-4357.12063	1817.5022500000005	-6540.28921	-4391.22184	1825.1059000000005	-6465.86563	-4393.52597	1682.4799000000005	-6253.88514	-4408.27244	1673.7241800000004	-6660.5651	-4398.59507	1556.9045000000006	-5986.14457	-4347.67367	1519.1166700000006	-5999.73898	-4352.74277	1526.7203200000004	-6916.09375	-4294.67855	1509.6697200000006	-6892.82198	-4310.11626	1485.7067100000004	-5717.25194	-4333.15762	1538.7018300000004	-5708.26581	-4364.72428	1514.0475800000004	-6004.57766	-4245.83087	1453.9096300000006	-7173.92653	-4286.15325	1493.7711800000004	-7188.673	-4307.58171	1500.4531700000005	-6890.51784	-4319.10239	1516.1213000000002	-5525.54785	-4288.91821	1486.8587700000005	-5606.1926	-4298.82599	1507.1351700000005	-5679.69453	-4243.75715	1464.9694800000004	-7367.24352	-4215.41628	1452.2967400000005	-7281.52967	-4238.91847	1473.9556100000004	-7211.48395	-4411.26782	1056.6766400000004	-6294.66835	-4446.29068	610.8263800000003	-6325.54376	-4447.44275	610.1351400000003	-6412.17927	-4398.36466	610.1351400000003	-6372.31772	-4450.66854	1081.3308900000004	-6643.51449	-4478.54858	634.0981500000005	-6626.92472	-4458.5026	629.2594600000004	-6542.82376	-4420.71477	631.5636000000004	-6593.28433	-4385.69191	570.2735900000004	-6372.08731	-4454.81598	145.3909600000004	-6333.60824	-4455.73764	144.9301400000004	-6402.04107	-4409.19409	591.2412200000005	-6598.58385	-4493.75588	169.1235600000004	-6638.21498	-4477.85734	165.20653000000038	-6571.85587	-4511.49772	32.02749000000039	-6393.28535	-4326.93645	9.67737000000039	-6396.05032	-4346.98243	0.46083000000038643	-6310.7973	-4312.65081	1.6128900000003887	-6349.27636	-4469.79286	24.654250000000392	-6384.06881	-4230.62358	1.1520700000003876	-6330.38245	-4556.65878	66.1286900000004	-6568.63008	-4385.23108	7.373230000000405	-6610.33494	-4426.2447	7.8340600000004095	-6688.21473	-4384.30943	-0.46082999999959223	-6659.41303	-4520.94468	51.1518100000004	-6587.52399	-4309.88585	0.6912400000004101	-6698.35292	
23	0.367	-4421.86684	1100.4552200000005	-6469.55225	-4337.53547	1191.0077500000004	-6322.08756	-4367.48924	1222.5744100000004	-6607.80039	-4388.22646	1263.5880200000004	-6335.22113	-4412.6503	1289.1639300000004	-6569.55174	-4473.94031	1032.7136300000004	-6411.48803	-4486.38264	1045.6167900000005	-6528.53812	-4492.83422	1121.1924400000005	-6459.64446	-4455.27681	1218.8877900000005	-6454.11454	-4440.99117	1334.0945800000004	-6450.65833	-4437.07414	1439.8544100000004	-6449.73668	-4259.19486	1644.4616600000004	-6463.56149	-4417.02816	1638.2404900000004	-6455.95785	-4432.00504	1545.6142300000004	-6451.8104	-4274.17174	1517.0429500000005	-6458.03157	-4405.04665	1692.8485100000005	-6456.8795	-4346.5216	1912.6630500000006	-6488.67657	-4326.93645	1834.3224400000004	-6415.63547	-4357.35104	1817.5022500000005	-6540.28921	-4391.45225	1825.1059000000005	-6465.63522	-4393.75639	1682.2494800000004	-6253.88514	-4408.73327	1673.7241800000004	-6660.5651	-4398.36466	1556.9045000000006	-5985.91416	-4347.44326	1519.1166700000006	-5999.73898	-4353.2036	1526.7203200000004	-6916.09375	-4295.13938	1509.4393000000005	-6892.82198	-4309.88585	1485.7067100000004	-5717.25194	-4332.9272	1538.7018300000004	-5708.26581	-4364.49386	1514.0475800000004	-6004.57766	-4245.83087	1454.8312900000005	-7173.92653	-4286.61407	1494.2320100000004	-7188.673	-4307.81212	1500.6835900000005	-6890.51784	-4318.87197	1515.8908800000002	-5525.31743	-4288.6878	1486.8587700000005	-5606.1926	-4298.59558	1507.1351700000005	-5679.69453	-4243.75715	1466.1215500000005	-7367.24352	-4215.18587	1453.6792200000004	-7281.76008	-4239.14888	1474.8772700000004	-7211.71436	-4411.26782	1056.6766400000004	-6294.66835	-4446.29068	610.5959600000003	-6325.54376	-4447.44275	610.1351400000003	-6412.17927	-4398.36466	609.9047200000003	-6372.31772	-4450.66854	1081.3308900000004	-6643.51449	-4478.54858	634.0981500000005	-6627.15513	-4458.5026	629.2594600000004	-6542.82376	-4420.71477	631.5636000000004	-6593.28433	-4385.92232	570.2735900000004	-6372.08731	-4454.81598	145.3909600000004	-6333.60824	-4455.73764	144.6997200000004	-6402.04107	-4409.19409	591.0108100000004	-6598.58385	-4493.75588	169.1235600000004	-6638.21498	-4477.85734	165.20653000000038	-6571.85587	-4511.49772	32.02749000000039	-6393.28535	-4326.93645	9.67737000000039	-6396.05032	-4346.98243	0.46083000000038643	-6310.7973	-4312.65081	1.6128900000003887	-6349.27636	-4469.79286	24.654250000000392	-6384.06881	-4230.62358	1.1520700000003876	-6330.38245	-4556.65878	66.1286900000004	-6568.63008	-4385.23108	7.373230000000405	-6610.33494	-4426.2447	7.8340600000004095	-6688.21473	-4384.30943	-0.46082999999959223	-6659.41303	-4520.94468	51.1518100000004	-6587.52399	-4309.88585	0.6912400000004101	-6698.35292	
